# xmcd
#
# Track frame offsets:
#	300
#	11512
#	25600
#	40312
#	66962
#	78025
#	96995
#	117525
#	137012
#	160100
#	207875
#	223875
#
# Disc length: 3250 seconds
#
# Revision: 0
# Processed by: cddbd v1.5.1PL0 Copyright (c) Steve Scherf et al.
# Submitted via: audiograbber 1.83.01
#
DISCID=a20cae0c
DTITLE=Eric Clapton - Stages
DYEAR=1900
DGENRE=
TTITLE0=John Mayall's Bluesbreakers - Stepping Out
TTITLE1=John Mayall's Bluesbreakers - Ramblin' On My Mind
TTITLE2=John Mayall's Bluesbreakers - Hideaway
TTITLE3=John Mayall's Bluesbreakers - Have You Heard
TTITLE4=Cream - Outside Woman Blues
TTITLE5=Cream - Crossroads
TTITLE6=John Mayall's Bluesbreakers - The Call It Stormy Monday
TTITLE7=Blind Faith  - Well Alright
TTITLE8=Derek and The Dominos - Bell Bottom Blues
TTITLE9=Derek and The Dominos - Blues Power (Live)
TTITLE10=Eric Clapton - Drifting Blues
TTITLE11=Eric Clapton - Mean Old Frisco Blues
EXTD=
EXTT0=
EXTT1=
EXTT2=
EXTT3=
EXTT4=
EXTT5=
EXTT6=
EXTT7=
EXTT8=
EXTT9=
EXTT10=
EXTT11=
PLAYORDER=
